<?xml version="1.0" encoding="UTF-8"?><svg xmlns="http://www.w3.org/2000/svg" xmlns:xlink="http://www.w3.org/1999/xlink" fill-opacity="1" color-rendering="auto" color-interpolation="auto" text-rendering="auto" stroke="black" stroke-linecap="square" width="767" stroke-miterlimit="10" shape-rendering="auto" stroke-opacity="1" fill="black" stroke-dasharray="none" font-weight="normal" stroke-width="1" height="139" font-family="'Dialog'" font-style="normal" stroke-linejoin="miter" font-size="12px" stroke-dashoffset="0" image-rendering="auto">
  <!--Generated by ySVG 2.5-->
  <defs id="genericDefs"/>
  <g>
    <defs id="defs1">
      <clipPath clipPathUnits="userSpaceOnUse" id="clipPath1">
        <path d="M0 0 L767 0 L767 139 L0 139 L0 0 Z"/>
      </clipPath>
      <clipPath clipPathUnits="userSpaceOnUse" id="clipPath2">
        <path d="M119 257 L886 257 L886 396 L119 396 L119 257 Z"/>
      </clipPath>
    </defs>
    <g fill="rgb(255,204,0)" text-rendering="geometricPrecision" shape-rendering="geometricPrecision" transform="matrix(1,0,0,1,-119,-257)" stroke="rgb(255,204,0)">
      <rect x="426" width="165" height="30" y="277" clip-path="url(#clipPath2)" stroke="none"/>
    </g>
    <g text-rendering="geometricPrecision" stroke-miterlimit="1.45" shape-rendering="geometricPrecision" transform="matrix(1,0,0,1,-119,-257)" stroke-linecap="butt">
      <rect fill="none" x="426" width="165" height="30" y="277" clip-path="url(#clipPath2)"/>
      <text x="476.8154" xml:space="preserve" y="296.7139" clip-path="url(#clipPath2)" font-family="sans-serif" stroke="none">permutation</text>
    </g>
    <g fill="rgb(255,204,0)" text-rendering="geometricPrecision" shape-rendering="geometricPrecision" transform="matrix(1,0,0,1,-119,-257)" stroke="rgb(255,204,0)">
      <rect x="426" width="165" height="30" y="349" clip-path="url(#clipPath2)" stroke="none"/>
    </g>
    <g text-rendering="geometricPrecision" stroke-miterlimit="1.45" shape-rendering="geometricPrecision" transform="matrix(1,0,0,1,-119,-257)" stroke-linecap="butt">
      <rect fill="none" x="426" width="165" height="30" y="349" clip-path="url(#clipPath2)"/>
      <text x="471.8057" xml:space="preserve" y="368.7139" clip-path="url(#clipPath2)" font-family="sans-serif" stroke="none">quantum gate</text>
    </g>
    <g fill="rgb(255,204,0)" text-rendering="geometricPrecision" shape-rendering="geometricPrecision" transform="matrix(1,0,0,1,-119,-257)" stroke="rgb(255,204,0)">
      <rect x="706" width="165" height="30" y="277" clip-path="url(#clipPath2)" stroke="none"/>
    </g>
    <g text-rendering="geometricPrecision" stroke-miterlimit="1.45" shape-rendering="geometricPrecision" transform="matrix(1,0,0,1,-119,-257)" stroke-linecap="butt">
      <rect fill="none" x="706" width="165" height="30" y="277" clip-path="url(#clipPath2)"/>
      <text x="733.1465" xml:space="preserve" y="289.3633" clip-path="url(#clipPath2)" font-family="sans-serif" stroke="none">reversible algorithms</text>
      <text x="727.4775" xml:space="preserve" y="304.0645" clip-path="url(#clipPath2)" font-family="sans-serif" stroke="none">(classical computation)</text>
    </g>
    <g fill="rgb(255,204,0)" text-rendering="geometricPrecision" shape-rendering="geometricPrecision" transform="matrix(1,0,0,1,-119,-257)" stroke="rgb(255,204,0)">
      <rect x="706" width="165" height="30" y="349" clip-path="url(#clipPath2)" stroke="none"/>
    </g>
    <g text-rendering="geometricPrecision" stroke-miterlimit="1.45" shape-rendering="geometricPrecision" transform="matrix(1,0,0,1,-119,-257)" stroke-linecap="butt">
      <rect fill="none" x="706" width="165" height="30" y="349" clip-path="url(#clipPath2)"/>
      <text x="735.8066" xml:space="preserve" y="361.3633" clip-path="url(#clipPath2)" font-family="sans-serif" stroke="none">quantum algorithms</text>
      <text x="726.8008" xml:space="preserve" y="376.0645" clip-path="url(#clipPath2)" font-family="sans-serif" stroke="none">(quantum computation)</text>
    </g>
    <g fill="rgb(255,204,0)" text-rendering="geometricPrecision" shape-rendering="geometricPrecision" transform="matrix(1,0,0,1,-119,-257)" stroke="rgb(255,204,0)">
      <rect x="134" width="175" height="30" y="349" clip-path="url(#clipPath2)" stroke="none"/>
    </g>
    <g text-rendering="geometricPrecision" stroke-miterlimit="1.45" shape-rendering="geometricPrecision" transform="matrix(1,0,0,1,-119,-257)" stroke-linecap="butt">
      <rect fill="none" x="134" width="175" height="30" y="349" clip-path="url(#clipPath2)"/>
      <text x="164.1514" xml:space="preserve" y="361.3633" clip-path="url(#clipPath2)" font-family="sans-serif" stroke="none">complex numbers (C)</text>
      <text x="137.4443" xml:space="preserve" y="376.0645" clip-path="url(#clipPath2)" font-family="sans-serif" stroke="none">(bounded; polar representation)</text>
    </g>
    <g fill="rgb(255,204,0)" text-rendering="geometricPrecision" shape-rendering="geometricPrecision" transform="matrix(1,0,0,1,-119,-257)" stroke="rgb(255,204,0)">
      <rect x="139" width="165" height="30" y="277" clip-path="url(#clipPath2)" stroke="none"/>
    </g>
    <g text-rendering="geometricPrecision" stroke-miterlimit="1.45" shape-rendering="geometricPrecision" transform="matrix(1,0,0,1,-119,-257)" stroke-linecap="butt">
      <rect fill="none" x="139" width="165" height="30" y="277" clip-path="url(#clipPath2)"/>
      <text x="170.4824" xml:space="preserve" y="296.7139" clip-path="url(#clipPath2)" font-family="sans-serif" stroke="none">binary numbers (B)</text>
      <path fill="none" d="M508.5 307 L508.5 341" clip-path="url(#clipPath2)"/>
      <path d="M508.5 349 L513.5 337 L508.5 340 L503.5 337 Z" clip-path="url(#clipPath2)" stroke="none"/>
      <text x="450.8145" xml:space="preserve" y="332.7139" clip-path="url(#clipPath2)" font-family="sans-serif" stroke="none">generalize</text>
      <path fill="none" d="M591 292 L698 292" clip-path="url(#clipPath2)"/>
      <path d="M706 292 L694 287 L697 292 L694 297 Z" clip-path="url(#clipPath2)" stroke="none"/>
      <text x="622.4785" xml:space="preserve" y="286.7139" clip-path="url(#clipPath2)" font-family="sans-serif" stroke="none">sequence</text>
      <path fill="none" d="M591 364 L698 364" clip-path="url(#clipPath2)"/>
      <path d="M706 364 L694 359 L697 364 L694 369 Z" clip-path="url(#clipPath2)" stroke="none"/>
      <text x="622.4785" xml:space="preserve" y="360.7139" clip-path="url(#clipPath2)" font-family="sans-serif" stroke="none">sequence</text>
      <path fill="none" d="M788.5 307 L788.5 341" clip-path="url(#clipPath2)"/>
      <path d="M788.5 349 L793.5 337 L788.5 340 L783.5 337 Z" clip-path="url(#clipPath2)" stroke="none"/>
      <text x="730.8145" xml:space="preserve" y="332.7139" clip-path="url(#clipPath2)" font-family="sans-serif" stroke="none">generalize</text>
      <path fill="none" d="M309 364 L418 364" clip-path="url(#clipPath2)"/>
      <path d="M426 364 L414 359 L417 364 L414 369 Z" clip-path="url(#clipPath2)" stroke="none"/>
      <text x="331.4912" xml:space="preserve" y="361.3633" clip-path="url(#clipPath2)" font-family="sans-serif" stroke="none">unitary matrix</text>
      <text x="319.1455" xml:space="preserve" y="376.0645" clip-path="url(#clipPath2)" font-family="sans-serif" stroke="none">(unitary linear op.)</text>
      <path fill="none" d="M221.5 307 L221.5 341" clip-path="url(#clipPath2)"/>
      <path d="M221.5 349 L226.5 337 L221.5 340 L216.5 337 Z" clip-path="url(#clipPath2)" stroke="none"/>
      <text x="163.8145" xml:space="preserve" y="332.7139" clip-path="url(#clipPath2)" font-family="sans-serif" stroke="none">generalize</text>
      <path fill="none" d="M304 292 L418 292" clip-path="url(#clipPath2)"/>
      <path d="M426 292 L414 287 L417 292 L414 297 Z" clip-path="url(#clipPath2)" stroke="none"/>
      <text x="334.6367" xml:space="preserve" y="289.3633" clip-path="url(#clipPath2)" font-family="sans-serif" stroke="none">unitary matrix</text>
      <text x="322.291" xml:space="preserve" y="304.0645" clip-path="url(#clipPath2)" font-family="sans-serif" stroke="none">(unitary linear op.)</text>
    </g>
  </g>
</svg>
